<svg height="100" viewBox="0 0 100 100" width="100" xmlns="http://www.w3.org/2000/svg"><rect fill="#19486f" height="53" rx="9.12" width="53" x="23.5" y="24.74"/><rect fill="#2e73b8" height="53" rx="9.12" width="53" x="23.5" y="22.26"/><g fill="#fff"><path d="m29.78 28.08h3.1l1.48 7.31 1.49-7.31h3.15v10.35h-1.95v-8.26l-1.84 8.26h-1.65l-1.84-8.26v8.26h-1.94z"/><path d="m41.77 35.2v.3c0 1 .28 1.59 1.38 1.59a1.19 1.19 0 0 0 1.25-1.28c0-.94-.48-1.29-1.86-1.77-1.86-.64-2.71-1.41-2.71-3.13 0-2 1.23-3 3.2-3s3.2.8 3.2 2.78v.31h-2c0-1-.33-1.54-1.13-1.54a1.07 1.07 0 0 0 -1.19 1.2c0 .64.19 1 1.07 1.41l1.61.7c1.57.68 2 1.48 2 2.74 0 2.19-1.33 3.17-3.59 3.17s-3.29-1.1-3.29-3v-.48z"/><path d="m52 35.2v.3c0 1 .28 1.59 1.38 1.59a1.19 1.19 0 0 0 1.25-1.28c0-.94-.48-1.29-1.86-1.77-1.86-.64-2.71-1.41-2.71-3.13 0-2 1.23-3 3.2-3s3.2.8 3.2 2.78v.31h-2c0-1-.33-1.54-1.13-1.54a1.07 1.07 0 0 0 -1.19 1.2c0 .64.19 1 1.07 1.41l1.61.7c1.57.68 2 1.48 2 2.74 0 2.19-1.33 3.17-3.59 3.17s-3.29-1.1-3.29-3v-.48z"/><path d="m63.5 39.71-1.23-1.28a2.72 2.72 0 0 1 -.64.16 5.58 5.58 0 0 1 -.74 0c-3.13 0-3.52-2.23-3.52-5.38s.39-5.38 3.52-5.38 3.52 2.23 3.52 5.38a7.57 7.57 0 0 1 -.8 4.2l1.12 1.13zm-2.61-2.61c1.23 0 1.43-1.06 1.43-3.84s-.2-3.84-1.43-3.84-1.44 1.07-1.44 3.84.21 3.84 1.44 3.84z"/><path d="m65.32 38.43v-10.35h2.09v8.64h3.7v1.71z"/></g></svg>