<svg enable-background="new 0 0 76.00 76.00" height="76" viewBox="0 0 76 76" width="76" xmlns="http://www.w3.org/2000/svg"><g stroke-linejoin="round"><path d="m19.2346 45.1867c-.4706 0-.8629-.1449-1.1769-.4346s-.471-.6456-.471-1.0675c0-.4356.1614-.7919.4841-1.069.3228-.2771.7263-.4156 1.2105-.4156.488 0 .8876.1405 1.1987.4215.3111.2809.4667.6353.4667 1.0631 0 .4394-.1585.7996-.4754 1.0806-.317.281-.7292.4215-1.2367.4215z"/><path d="m34.9467 45h-2.9925l-5.3521-8.2104c-.3131-.4803-.5308-.842-.6533-1.085h-.035c.0486.4608.0729 1.1657.0729 2.1146v7.1808h-2.8v-13.0667h3.1908l5.1538 7.9538c.2352.3597.453.7155.6533 1.0675h.035c-.0486-.3034-.0729-.9013-.0729-1.7938v-7.2275h2.8z"/><path d="m45.7733 45h-7.84v-13.0667h7.4667v2.4267h-4.48v2.8h4.2933v2.4267h-4.2933v2.9866h4.8533z"/><path d="m57.16 34.36h-3.7333v10.64h-2.9867v-10.64h-3.7333v-2.4267h10.4533z"/></g></svg>